<?xml version="1.0" encoding="UTF-8"?>
<svg id="Calque_1" xmlns="http://www.w3.org/2000/svg" version="1.1" viewBox="0 0 163 167">
  <!-- Generator: Adobe Illustrator 29.0.0, SVG Export Plug-In . SVG Version: 2.1.0 Build 186)  -->
  <defs>
    <style>
      .st0, .st1 {
        fill: #1c9cda;
      }

      .st1 {
        opacity: .3;
      }
    </style>
  </defs>
  <path id="Vue-densemble-de-la-facade-est-du-bloc-public-depuis-JE-scaled-e1713796537948-2" class="st1" d="M29.2,0h133.8v167H0V29.1C0,13,13.1,0,29.2,0Z"/>
  <path id="Tracé_54" class="st0" d="M163,167H0s5.3-16.2,8.1-19.4c3.6-4.1,9.1-5.9,14.3-7.5,12.6-3.9,25.1-7.7,37.7-11.6,1.7-4.9,2.6-10,2.7-15.1-2.6-2.9-4.8-6.1-6.3-9.7-1.5-4-2.4-8.2-2.4-12.4-.6.9-1.6,1.4-2.7,1.2-1.2-.3-2.1-1.1-2.6-2.1-.5-1.1-.8-2.2-1-3.4-.7-4-.9-8.1-.9-12.3,0-1.7.4-3.9,2.1-4.4.8-.2,1.6-.1,2.3.3-.4-7.1-.4-14.2,0-21.3.2-4.2.6-8.6,2.6-12.2,2-3.4,5-6,8.7-7.5,1.9-.8,3.9-1.5,5.9-2.1,9.5-2.7,19.6-2.6,29.1.3,1.6.5,3.2,1.1,4.8,1.8,3.6,1.5,6.6,4.1,8.6,7.5,2.1,3.7,2.4,8,2.6,12.2.4,7.1.4,14.2,0,21.3.7-.4,1.5-.6,2.3-.3,1.7.6,2,2.7,2.1,4.4,0,4.1-.2,8.2-.9,12.3-.1,1.2-.5,2.3-1,3.4-.5,1.1-1.5,1.9-2.7,2.2-1.1.2-2.1-.3-2.7-1.2,0,4.3-.8,8.5-2.4,12.4-1.6,3.6-3.7,6.8-6.3,9.7.1,5.1,1.1,10.2,2.7,15.1,12.6,3.9,25.1,7.7,37.7,11.6,5.2,1.6,10.7,3.4,14.3,7.5,2.8,3.2,6.1,19.4,6.1,19.4"/>
</svg>