<?xml version="1.0" encoding="UTF-8"?>
<svg id="Calque_1" xmlns="http://www.w3.org/2000/svg" version="1.1" viewBox="0 0 163 167">
  <!-- Generator: Adobe Illustrator 29.0.0, SVG Export Plug-In . SVG Version: 2.1.0 Build 186)  -->
  <defs>
    <style>
      .st0, .st1 {
        fill: #1c9cda;
      }

      .st1 {
        opacity: .3;
      }
    </style>
  </defs>
  <path id="Vue-densemble-de-la-facade-est-du-bloc-public-depuis-JE-scaled-e1713796537948-2" class="st1" d="M27,0h136v167H0V26.9C0,12,12.1,0,27,0Z"/>
  <path id="Tracé_60" class="st0" d="M135.8,143v24H27.2v-24c0-7.6,5.2-14.2,12.6-15.9l9.8-2.3c-22.1.1-19.7-16.6-19.7-16.6,10.9,0,13.6-10.9,13.6-32.6v-13.6c0-21,17-38,38-38s38,17,38,38v13.6c0,21.7,2.7,32.6,13.6,32.6,0,0,2.4,16.7-19.7,16.6l9.8,2.3c7.4,1.7,12.6,8.3,12.6,15.9"/>
</svg>