<svg xmlns="http://www.w3.org/2000/svg" xmlns:xlink="http://www.w3.org/1999/xlink" width="88" height="88" viewBox="0 0 88 88">
  <defs>
    <filter id="Rectangle_8" x="0" y="0" width="88" height="88" filterUnits="userSpaceOnUse">
      <feOffset dx="2" dy="6" input="SourceAlpha"/>
      <feGaussianBlur stdDeviation="3" result="blur"/>
      <feFlood flood-opacity="0.161"/>
      <feComposite operator="in" in2="blur"/>
      <feComposite in="SourceGraphic"/>
    </filter>
  </defs>
  <g id="fleche-retour" transform="translate(-271 -804)">
    <g id="Groupe_365" data-name="Groupe 365">
      <g transform="matrix(1, 0, 0, 1, 271, 804)" filter="url(#Rectangle_8)">
        <g id="Rectangle_8-2" data-name="Rectangle 8" transform="translate(7 3)" fill="none" stroke="#1c9cda" stroke-width="1">
          <rect width="70" height="70" rx="35" stroke="none"/>
          <rect x="0.5" y="0.5" width="69" height="69" rx="34.5" fill="none"/>
        </g>
      </g>
    </g>
    <path id="Icon_ion-ios-arrow-forward" data-name="Icon ion-ios-arrow-forward" d="M12.141,15.194.638,3.7a2.163,2.163,0,0,1,0-3.068,2.191,2.191,0,0,1,3.077,0L16.748,13.655a2.168,2.168,0,0,1,.063,3L3.724,29.765A2.173,2.173,0,0,1,.647,26.7Z" transform="translate(321.381 857.399) rotate(180)" fill="#1c9cda"/>
  </g>
</svg>
