<svg id="instagram" xmlns="http://www.w3.org/2000/svg" xmlns:xlink="http://www.w3.org/1999/xlink" width="26.628" height="26.644" viewBox="0 0 26.628 26.644">
  <defs>
    <clipPath id="clip-path">
      <rect id="Rectangle_252" data-name="Rectangle 252" width="26.628" height="26.644" fill="none"/>
    </clipPath>
  </defs>
  <g id="Groupe_11" data-name="Groupe 11" clip-path="url(#clip-path)">
    <path id="Tracé_10" data-name="Tracé 10" d="M26.6,22.351a4.3,4.3,0,0,1-4.308,4.293l-18-.031A4.3,4.3,0,0,1,0,22.305L.031,4.293A4.3,4.3,0,0,1,4.339,0l18,.031a4.3,4.3,0,0,1,4.293,4.308Z" transform="translate(0 0)" fill="#025194"/>
    <path id="Tracé_11" data-name="Tracé 11" d="M53.3,48.877a4.614,4.614,0,0,1-4.622,4.606l-7.724-.014a4.614,4.614,0,0,1-4.606-4.622l.013-7.654a4.614,4.614,0,0,1,4.622-4.606l7.724.013a4.614,4.614,0,0,1,4.606,4.622Z" transform="translate(-31.503 -31.711)" fill="#fff"/>
    <path id="Tracé_12" data-name="Tracé 12" d="M61.153,58.078a3.269,3.269,0,0,1-3.274,3.263l-7.526-.013a3.269,3.269,0,0,1-3.263-3.274l.013-7.492A3.269,3.269,0,0,1,50.376,47.3l7.526.013a3.269,3.269,0,0,1,3.263,3.274Z" transform="translate(-40.812 -40.994)" fill="#025194"/>
    <path id="Tracé_13" data-name="Tracé 13" d="M127.928,58.848a.95.95,0,1,1-.95.95.95.95,0,0,1,.95-.95" transform="translate(-110.051 -51.003)" fill="#fff"/>
    <path id="Tracé_14" data-name="Tracé 14" d="M74.857,70.152a4.584,4.584,0,1,1-4.584-4.584,4.584,4.584,0,0,1,4.584,4.584" transform="translate(-56.931 -56.827)" fill="#fff"/>
    <path id="Tracé_15" data-name="Tracé 15" d="M80.236,77.258A3.038,3.038,0,1,1,77.2,80.3a3.038,3.038,0,0,1,3.038-3.038" transform="translate(-66.907 -66.959)" fill="#025194"/>
  </g>
</svg>
