<svg id="linkedin" xmlns="http://www.w3.org/2000/svg" xmlns:xlink="http://www.w3.org/1999/xlink" width="26.725" height="26.715" viewBox="0 0 26.725 26.715">
  <defs>
    <clipPath id="clip-path">
      <rect id="Rectangle_251" data-name="Rectangle 251" width="26.726" height="26.715" fill="none"/>
    </clipPath>
  </defs>
  <g id="Groupe_9" data-name="Groupe 9" clip-path="url(#clip-path)">
    <path id="Tracé_6" data-name="Tracé 6" d="M26.725,22.265a4.332,4.332,0,0,1-4.31,4.355l-17.967.094A4.332,4.332,0,0,1,.094,22.4L0,4.449A4.333,4.333,0,0,1,4.309.094L22.276,0a4.333,4.333,0,0,1,4.355,4.31Z" transform="translate(0 0)" fill="#025194"/>
    <path id="Tracé_7" data-name="Tracé 7" d="M46.413,43.818A1.761,1.761,0,1,1,44.7,41.973a1.781,1.781,0,0,1,1.713,1.845" transform="translate(-37.174 -36.377)" fill="#fff"/>
    <path id="Tracé_8" data-name="Tracé 8" d="M83.988,80.325A3.856,3.856,0,0,1,87.7,79a3.455,3.455,0,0,1,3.139,3.35q.088,2.37.025,6.687a.076.076,0,0,1-.084.084l-2.733.028a.072.072,0,0,1-.083-.079q-.108-2.727-.048-3.928a4.627,4.627,0,0,0-.328-2.511,2.033,2.033,0,0,0-3.63.449,3.127,3.127,0,0,0-.14,1.092q.009,2.437-.04,4.871a.059.059,0,0,1-.067.065h-2.73a.088.088,0,0,1-.1-.1V79.18a.093.093,0,0,1,.092-.093h0l2.782.028c.046,0,.066.024.06.071a3.607,3.607,0,0,0,0,1.089q.031.2.168.051" transform="translate(-70.1 -68.406)" fill="#fff"/>
    <path id="Tracé_9" data-name="Tracé 9" d="M45.224,80.272H48a.092.092,0,0,1,.092.092v9.814A.092.092,0,0,1,48,90.27H45.224a.092.092,0,0,1-.092-.092V80.364a.092.092,0,0,1,.092-.092" transform="translate(-39.116 -69.571)" fill="#fff"/>
  </g>
</svg>
