<svg xmlns="http://www.w3.org/2000/svg" xmlns:xlink="http://www.w3.org/1999/xlink" width="39.271" height="26.502" viewBox="0 0 39.271 26.502">
  <defs>
    <clipPath id="clip-path">
      <rect id="Rectangle_280" data-name="Rectangle 280" width="39.271" height="26.502" fill="#1c9cda"/>
    </clipPath>
  </defs>
  <g id="picto-promo" transform="translate(0 0)">
    <g id="Groupe_191" data-name="Groupe 191" transform="translate(0 0)" clip-path="url(#clip-path)">
      <path id="Tracé_57" data-name="Tracé 57" d="M38.711,8.881,21.944.419a3.956,3.956,0,0,0-3.543,0L1.636,8.881a.959.959,0,0,0,0,1.745l.209.113v3.489a1.056,1.056,0,0,0-.253,1.858L.012,21.233a.647.647,0,0,0,.411.733,5.438,5.438,0,0,0,3.568,0,.628.628,0,0,0,.4-.792v0l-1.57-5.147a1.055,1.055,0,0,0-.244-1.858V11.079L18.4,19.087a3.956,3.956,0,0,0,3.543,0l16.767-8.462a.959.959,0,0,0,0-1.745" transform="translate(0 0)" fill="#1c9cda"/>
      <path id="Tracé_58" data-name="Tracé 58" d="M21.409,23.206a5.3,5.3,0,0,1-2.4-.576L9.685,17.92v7.851a.872.872,0,0,0,.558.872,30.121,30.121,0,0,0,22.331,0,.872.872,0,0,0,.558-.872V17.92l-9.316,4.711a5.42,5.42,0,0,1-2.408.576" transform="translate(-1.236 -2.288)" fill="#1c9cda"/>
    </g>
  </g>
</svg>
